<?xml version="1.0" encoding="utf-8"?>
<!-- Generator: Adobe Illustrator 16.0.4, SVG Export Plug-In . SVG Version: 6.00 Build 0)  -->
<!DOCTYPE svg PUBLIC "-//W3C//DTD SVG 1.1//EN" "http://www.w3.org/Graphics/SVG/1.1/DTD/svg11.dtd">
<svg version="1.1" id="Capa_1" xmlns="http://www.w3.org/2000/svg" xmlns:xlink="http://www.w3.org/1999/xlink" x="0px" y="0px"
	 width="16px" height="16px" viewBox="0 0 16 16" enable-background="new 0 0 16 16" xml:space="preserve">
<g>
	<path d="M4,1H2C1.448,1,1,1.448,1,2v2c0,0.552,0.448,1,1,1h2c0.552,0,1-0.448,1-1V2C5,1.448,4.552,1,4,1z"/>
	<path d="M9,1H7C6.448,1,6,1.448,6,2v2c0,0.552,0.448,1,1,1h2c0.552,0,1-0.448,1-1V2C10,1.448,9.552,1,9,1z"/>
	<path d="M14,1h-2c-0.552,0-1,0.448-1,1v2c0,0.552,0.448,1,1,1h2c0.552,0,1-0.448,1-1V2C15,1.448,14.552,1,14,1z"/>
	<path d="M4,6H2C1.448,6,1,6.448,1,7v2c0,0.552,0.448,1,1,1h2c0.552,0,1-0.448,1-1V7C5,6.448,4.552,6,4,6z"/>
	<path d="M9,6H7C6.448,6,6,6.448,6,7v2c0,0.552,0.448,1,1,1h2c0.552,0,1-0.448,1-1V7C10,6.448,9.552,6,9,6z"/>
	<path d="M14,6h-2c-0.552,0-1,0.448-1,1v2c0,0.552,0.448,1,1,1h2c0.552,0,1-0.448,1-1V7C15,6.448,14.552,6,14,6z"/>
	<path d="M4,11H2c-0.552,0-1,0.448-1,1v2c0,0.552,0.448,1,1,1h2c0.552,0,1-0.448,1-1v-2C5,11.448,4.552,11,4,11z"/>
	<path d="M9,11H7c-0.552,0-1,0.448-1,1v2c0,0.552,0.448,1,1,1h2c0.552,0,1-0.448,1-1v-2C10,11.448,9.552,11,9,11z"/>
	<path d="M14,11h-2c-0.552,0-1,0.448-1,1v2c0,0.552,0.448,1,1,1h2c0.552,0,1-0.448,1-1v-2C15,11.448,14.552,11,14,11z"/>
</g>
</svg>
