<?xml version="1.0" encoding="iso-8859-1"?>
<!-- Generator: Adobe Illustrator 16.0.0, SVG Export Plug-In . SVG Version: 6.00 Build 0)  -->
<!DOCTYPE svg PUBLIC "-//W3C//DTD SVG 1.1//EN" "http://www.w3.org/Graphics/SVG/1.1/DTD/svg11.dtd">
<svg version="1.1" id="Capa_1" xmlns="http://www.w3.org/2000/svg" xmlns:xlink="http://www.w3.org/1999/xlink" x="0px" y="0px"
	 width="27.021px" height="23.94px" viewBox="0 0 27.021 23.94" style="enable-background:new 0 0 27.021 23.94;"
	 xml:space="preserve">
<path style="fill:#000000;" d="M3.674,23.336c0,0-0.024,0.604,0.566,0.604c0.734,0,6.811-0.008,6.811-0.008l0.01-5.581
	c0,0-0.096-0.92,0.797-0.92h2.826c1.056,0,0.991,0.92,0.991,0.92l-0.012,5.563c0,0,5.762,0,6.667,0c0.749,0,0.715-0.752,0.715-0.752
	V12.873l-9.396-8.358l-9.975,8.358V23.336z"/>
<path style="fill:#000000;" d="M0,12.095c0,0,0.847,1.561,2.694,0l11.038-9.338l10.349,9.28c2.138,1.542,2.939,0,2.939,0L13.732,0
	L0,12.095z"/>
<polygon style="fill:#000000;" points="23.83,2.735 21.168,2.735 21.179,5.963 23.83,8.212 "/>
<g>
</g>
<g>
</g>
<g>
</g>
<g>
</g>
<g>
</g>
<g>
</g>
<g>
</g>
<g>
</g>
<g>
</g>
<g>
</g>
<g>
</g>
<g>
</g>
<g>
</g>
<g>
</g>
<g>
</g>
</svg>
