<?xml version="1.0" encoding="utf-8"?>
<!-- Generator: Adobe Illustrator 16.0.4, SVG Export Plug-In . SVG Version: 6.00 Build 0)  -->
<!DOCTYPE svg PUBLIC "-//W3C//DTD SVG 1.1//EN" "http://www.w3.org/Graphics/SVG/1.1/DTD/svg11.dtd">
<svg version="1.1" id="Capa_1" xmlns="http://www.w3.org/2000/svg" xmlns:xlink="http://www.w3.org/1999/xlink" x="0px" y="0px"
	 width="16px" height="16px" viewBox="0 0 16 16" enable-background="new 0 0 16 16" xml:space="preserve">
<path d="M15.982,1.948C15.939,1.433,15.523,1,15,1H1C0.477,1,0.061,1.433,0.017,1.948H0V15c0,0.552,0.448,1,1,1h14
	c0.552,0,1-0.448,1-1V1.948H15.982z M5,15H1v-3h4V15z M5,11.083H1V8h4V11.083z M5,7H1V4h4V7z M10,15H6v-3h4V15z M10,11.083H6V8h4
	V11.083z M10,7H6V4h4V7z M15,15h-4v-3h4V15z M15,11.083h-4V8h4V11.083z M15,7h-4V4h4V7z"/>
</svg>
